<?xml version="1.0" encoding="utf-8"?>
<!-- Generator: Adobe Illustrator 16.0.2, SVG Export Plug-In . SVG Version: 6.00 Build 0)  -->
<!DOCTYPE svg PUBLIC "-//W3C//DTD SVG 1.1//EN" "http://www.w3.org/Graphics/SVG/1.1/DTD/svg11.dtd">
<svg version="1.1" id="Layer_1" xmlns="http://www.w3.org/2000/svg" xmlns:xlink="http://www.w3.org/1999/xlink" x="0px" y="0px"
	 width="406.5px" height="130px" viewBox="0 0 406.5 130" enable-background="new 0 0 406.5 130" xml:space="preserve">
<g>
	<g>
		
			<rect x="3.383" y="42.964" fill="none" stroke="#FFFFFF" stroke-width="1.5" stroke-miterlimit="10" width="14.583" height="21.125"/>
		<line fill="none" stroke="#FFFFFF" stroke-width="0.75" stroke-miterlimit="10" x1="17.965" y1="45.691" x2="3.383" y2="45.691"/>
		<line fill="none" stroke="#FFFFFF" stroke-width="0.75" stroke-miterlimit="10" x1="17.965" y1="60.152" x2="3.383" y2="60.152"/>
		<ellipse fill="#FFFFFF" cx="10.452" cy="61.971" rx="1.271" ry="1.155"/>
	</g>
	<g>
		<path fill="#FFFFFF" d="M45.098,49.295c-0.079-1.242,0.391-2.09,0.994-2.772c0.291-0.33,0.655-0.615,1.075-0.832
			c0.417-0.215,0.887-0.398,1.445-0.451c0.016-0.002,0.02-0.012,0.036-0.01c0.055,0.006,0.05,0.082,0.054,0.19
			c0.045,1.209-0.455,2.013-1.002,2.628c-0.312,0.35-0.643,0.654-1.048,0.885C46.242,49.167,45.75,49.345,45.098,49.295z"/>
		<path fill="#FFFFFF" d="M51.864,51.039c-1.111,0.705-2.069,1.736-1.906,3.631c0.141,1.631,1.164,2.609,2.375,3.18
			c-0.438,1.316-1.097,2.371-1.888,3.324c-0.561,0.676-1.294,1.451-2.592,1.191c-0.714-0.145-1.25-0.487-2.023-0.588
			c-0.39-0.049-0.831-0.018-1.183,0.063c-0.679,0.154-1.263,0.52-2.005,0.598c-0.835,0.09-1.387-0.393-1.797-0.785
			c-0.456-0.439-0.809-0.928-1.166-1.438c-0.69-0.989-1.269-2.216-1.599-3.61c-0.166-0.705-0.267-1.525-0.244-2.342
			c0.023-0.816,0.184-1.531,0.452-2.148c0.526-1.213,1.392-2.099,2.674-2.539c0.33-0.113,0.712-0.199,1.084-0.217
			c1.036-0.047,1.785,0.371,2.601,0.633c0.161,0.052,0.349,0.119,0.524,0.125c0.265,0.012,0.545-0.131,0.777-0.207
			c0.517-0.172,0.944-0.348,1.49-0.479c0.275-0.065,0.575-0.12,0.894-0.126c0.408-0.008,0.812,0.068,1.166,0.153
			C50.555,49.714,51.333,50.26,51.864,51.039z"/>
	</g>
	<g>
		<circle fill="#FFFFFF" cx="92.182" cy="53.839" r="1.271"/>
		<path fill="none" stroke="#FFFFFF" stroke-width="1.5" stroke-miterlimit="1" d="M95.119,60.726c0,0.951-0.354,1.723-0.789,1.723
			H69.491c-0.436,0-0.788-0.771-0.788-1.723V46.953c0-0.951,0.353-1.723,0.788-1.723H94.33c0.436,0,0.789,0.771,0.789,1.723V60.726z
			"/>
	</g>
	<g>
		<path fill="none" stroke="#FFFFFF" stroke-width="1.5" stroke-miterlimit="10" d="M134.732,46.455h9.38
			c1.357,0,2.459,0.896,2.459,2v12.75c0,1.104-1.102,2-2.459,2H111.53c-1.358,0-2.459-0.896-2.459-2v-12.75c0-1.104,1.101-2,2.459-2
			h1.364h14.584"/>
		<g>
			<g>
				<line fill="none" stroke="#FFFFFF" stroke-miterlimit="10" x1="124.013" y1="42.678" x2="128.138" y2="46.803"/>
			</g>
			<line fill="none" stroke="#FFFFFF" stroke-miterlimit="10" x1="127.745" y1="46.504" x2="123.329" y2="50.921"/>
		</g>
		<g>
			<text transform="matrix(1 0 0 1 119.415 58.8047)" fill="#FFFFFF" font-family="'MyriadPro-Regular'" font-size="9">MÁY</text>
		</g>
	</g>
	<g>
		<path fill="#FFFFFF" d="M185.109,53.939c0-2.98-1.162-5.789-3.271-7.896c-2.107-2.108-4.914-3.271-7.897-3.271
			s-5.788,1.162-7.896,3.271c-2.107,2.106-3.27,4.914-3.27,7.896v5.287c0,2.987,2.433,5.42,5.42,5.42
			c0.359,0,0.646-0.287,0.646-0.645v-9.546c0-0.358-0.287-0.646-0.646-0.646c-1.653,0-3.135,0.74-4.129,1.911v-1.782
			c0-5.443,4.43-9.875,9.875-9.875c5.448,0,9.875,4.432,9.875,9.875c0,0.043,0.006,0.086,0.015,0.131
			c-0.008,0.041-0.015,0.084-0.015,0.127v1.783c-0.994-1.17-2.479-1.91-4.129-1.91c-0.358,0-0.646,0.285-0.646,0.645v9.546
			c0,0.358,0.285,0.646,0.646,0.646c2.984,0,5.42-2.432,5.42-5.42v-5.287c0-0.043-0.004-0.086-0.018-0.129
			C185.105,54.025,185.109,53.982,185.109,53.939z M167.548,55.15v8.153c-1.97-0.312-3.486-2.021-3.486-4.077
			C164.068,57.17,165.579,55.459,167.548,55.15z M180.34,63.562v-8.154c1.969,0.312,3.484,2.021,3.484,4.076
			C183.818,61.544,182.307,63.251,180.34,63.562z"/>
	</g>
	<g>
		<g>
			<path fill="#FFFFFF" d="M213.85,43.261c-1.615,0-2.969,1.314-2.969,2.93c0,1.617,1.354,2.932,2.969,2.932
				c1.617-0.002,2.928-1.313,2.93-2.932C216.777,44.574,215.467,43.263,213.85,43.261z M213.85,47.949
				c-0.973,0-1.758-0.787-1.758-1.758c0-0.972,0.789-1.76,1.758-1.76c0.971,0,1.758,0.788,1.758,1.76
				C215.605,47.162,214.82,47.947,213.85,47.949L213.85,47.949z"/>
			<path fill="#FFFFFF" d="M223.162,52.152c-0.219-0.236-0.59-0.254-0.828-0.035c-0.238,0.221-0.254,0.592-0.033,0.828
				c0.01,0.014,0.021,0.023,0.033,0.035c0.457,0.459,0.455,1.201-0.004,1.658c-0.219,0.219-0.516,0.34-0.824,0.342h-0.029
				c-0.297-3.281-3.1-5.857-6.455-5.857h-2.93c-0.359,0-0.768,0.035-1.176,0.115c-0.768-0.82-1.842-1.287-2.965-1.289
				c-0.322,0-0.586,0.264-0.586,0.586v2.64c-0.701,0.747-1.215,1.649-1.494,2.638h-0.264c-0.971,0-1.758,0.785-1.758,1.758v1.25
				c0,0.969,0.789,1.758,1.758,1.758c0.002,0.002,0.395,0,0.703,0.002c0.396,0.781,0.959,1.479,1.639,2.039
				c0.002,0.781,0.002,2.061,0.002,2.061c0,0.324,0.262,0.586,0.586,0.586h2.344c0.324,0,0.625-0.262,0.625-0.586V62.07
				c0.195,0.02,0.391,0.025,0.586,0.025h2.93v0.586c0,0.324,0.268,0.586,0.586,0.586h2.389c0.318,0,0.586-0.262,0.586-0.586
				l0.002-1.63c1.646-1.077,2.711-2.94,2.896-4.894h0.035c1.295-0.002,2.344-1.049,2.346-2.344
				C223.85,53.183,223.605,52.594,223.162,52.152z M208.531,54.992c-0.326-0.002-0.59-0.268-0.592-0.592
				c0-0.324,0.268-0.594,0.592-0.594s0.592,0.27,0.592,0.594C209.121,54.726,208.857,54.99,208.531,54.992z M216.193,52.636h-4.688
				c-0.323,0-0.625-0.262-0.625-0.586c0-0.324,0.302-0.586,0.625-0.586h4.688c0.324-0.001,0.586,0.262,0.588,0.584
				c0,0.324-0.262,0.587-0.586,0.588H216.193L216.193,52.636z"/>
		</g>
	</g>
	<g>
		<path fill="#FFFFFF" d="M243.209,48.443c3.551,1.713,6.932,3.597,10.396,5.396c-3.396,1.871-6.898,3.631-10.396,5.396
			C243.209,55.637,243.209,52.041,243.209,48.443z"/>
		<path fill="none" stroke="#FFFFFF" stroke-width="1.5" stroke-miterlimit="10" d="M261.314,62.816c0,0.312-0.25,0.563-0.563,0.563
			h-24.695c-0.313,0-0.563-0.251-0.563-0.563V44.861c0-0.311,0.252-0.562,0.563-0.562h24.695c0.313,0,0.563,0.25,0.563,0.562V62.816
			z"/>
	</g>
	<path fill="#FFFFFF" d="M298.363,64.724l-1.57-16.857c-0.063-0.689-0.68-1.25-1.375-1.25h-2.176
		c-0.238-3.332-3.133-5.84-6.465-5.602c-3,0.215-5.387,2.602-5.604,5.602h-2.604c-0.711,0.004-1.305,0.543-1.375,1.25l0,0
		l-1.569,16.857c-0.067,0.662,0.412,1.254,1.074,1.325c0.047,0.004,0.094,0.008,0.141,0.006h20.312
		c0.664,0.01,1.211-0.521,1.224-1.186C298.369,64.82,298.367,64.771,298.363,64.724z M292.826,51.367
		c0.238,0,0.434-0.193,0.434-0.432v-0.748c0.414,0.239,0.555,0.768,0.314,1.182c-0.236,0.412-0.768,0.555-1.182,0.316
		c-0.412-0.238-0.559-0.771-0.314-1.183c0.076-0.134,0.186-0.24,0.314-0.315v0.748C292.393,51.173,292.586,51.367,292.826,51.367
		L292.826,51.367z M287.209,41.863c2.693,0.004,4.938,2.066,5.164,4.752h-10.33C282.27,43.93,284.516,41.867,287.209,41.863z
		 M281.592,51.367c0.238,0,0.432-0.193,0.432-0.432v-0.748c0.414,0.239,0.559,0.768,0.316,1.182
		c-0.238,0.412-0.768,0.555-1.182,0.316c-0.412-0.24-0.555-0.771-0.314-1.183c0.074-0.134,0.188-0.24,0.314-0.315v0.748
		C281.16,51.173,281.352,51.367,281.592,51.367L281.592,51.367z M297.416,65.08c-0.07,0.072-0.168,0.113-0.27,0.111h-20.313
		c-0.188,0.008-0.354-0.14-0.354-0.328c0-0.021,0-0.039,0.004-0.06l1.564-16.858l0,0c0.029-0.262,0.256-0.459,0.52-0.467h2.592
		v1.786c-0.924,0.236-1.479,1.181-1.242,2.104c0.238,0.924,1.182,1.479,2.105,1.242c0.922-0.238,1.479-1.183,1.24-2.105
		c-0.156-0.609-0.637-1.084-1.24-1.24V47.48h10.369v1.785c-0.928,0.238-1.479,1.18-1.24,2.104c0.238,0.927,1.182,1.48,2.104,1.242
		c0.926-0.237,1.479-1.182,1.238-2.104c-0.154-0.608-0.635-1.084-1.238-1.239V47.48h2.158c0.266,0.012,0.479,0.207,0.518,0.467
		l1.564,16.858C297.514,64.904,297.482,65.003,297.416,65.08z"/>
</g>
<g>
	<g>
		<rect x="3.383" y="2.964" fill="none" stroke="#010101" stroke-miterlimit="10" width="14.583" height="21.125"/>
		<line fill="none" stroke="#010101" stroke-miterlimit="10" x1="17.965" y1="5.691" x2="3.383" y2="5.691"/>
		<line fill="none" stroke="#010101" stroke-miterlimit="10" x1="17.965" y1="20.152" x2="3.383" y2="20.152"/>
		<ellipse fill="#010101" cx="10.452" cy="21.97" rx="1.271" ry="1.155"/>
	</g>
	<g>
		<path fill="#010101" d="M45.098,9.295c-0.079-1.242,0.391-2.09,0.994-2.772c0.291-0.33,0.655-0.615,1.075-0.832
			c0.417-0.216,0.887-0.399,1.445-0.451c0.016-0.002,0.02-0.012,0.036-0.01c0.055,0.006,0.05,0.082,0.054,0.19
			c0.045,1.209-0.455,2.013-1.002,2.628c-0.312,0.35-0.643,0.655-1.048,0.885C46.242,9.167,45.75,9.345,45.098,9.295z"/>
		<path fill="#010101" d="M51.864,11.038c-1.111,0.705-2.069,1.736-1.906,3.631c0.141,1.631,1.164,2.609,2.375,3.18
			c-0.438,1.316-1.097,2.371-1.888,3.324c-0.561,0.676-1.294,1.451-2.592,1.191c-0.714-0.146-1.25-0.487-2.023-0.588
			c-0.39-0.049-0.831-0.017-1.183,0.063c-0.679,0.155-1.263,0.519-2.005,0.597c-0.835,0.09-1.387-0.392-1.797-0.785
			c-0.456-0.439-0.809-0.927-1.166-1.438c-0.69-0.989-1.269-2.216-1.599-3.611c-0.166-0.705-0.267-1.525-0.244-2.341
			c0.023-0.817,0.184-1.532,0.452-2.149c0.526-1.213,1.392-2.098,2.674-2.539c0.33-0.113,0.712-0.199,1.084-0.217
			c1.036-0.047,1.785,0.371,2.601,0.633c0.161,0.052,0.349,0.119,0.524,0.125c0.265,0.012,0.545-0.131,0.777-0.207
			c0.517-0.172,0.944-0.348,1.49-0.479c0.275-0.065,0.575-0.12,0.894-0.126c0.408-0.008,0.812,0.068,1.166,0.153
			C50.555,9.714,51.333,10.26,51.864,11.038z"/>
	</g>
	<g>
		<circle fill="#010101" cx="92.182" cy="13.839" r="1.271"/>
		<path fill="none" stroke="#010101" stroke-width="1.5" stroke-miterlimit="1" d="M95.119,20.727c0,0.951-0.354,1.723-0.789,1.723
			H69.491c-0.436,0-0.788-0.771-0.788-1.723V6.952c0-0.951,0.353-1.723,0.788-1.723H94.33c0.436,0,0.789,0.771,0.789,1.723V20.727z"
			/>
	</g>
	<g>
		<path fill="none" stroke="#010101" stroke-width="1.5" stroke-miterlimit="10" d="M134.732,6.454h9.38
			c1.358,0,2.459,0.896,2.459,2v12.75c0,1.104-1.101,2-2.459,2H111.53c-1.358,0-2.459-0.896-2.459-2V8.454c0-1.104,1.101-2,2.459-2
			h1.364h14.584"/>
		<g>
			<g>
				<line fill="none" stroke="#010101" stroke-miterlimit="10" x1="124.013" y1="2.678" x2="128.138" y2="6.803"/>
			</g>
			<line fill="none" stroke="#010101" stroke-miterlimit="10" x1="127.745" y1="6.504" x2="123.329" y2="10.921"/>
		</g>
		<g>
			<text transform="matrix(1 0 0 1 119.415 18.8047)" fill="#010101" font-family="'MyriadPro-Regular'" font-size="9">MÁY</text>
		</g>
	</g>
	<g>
		<path fill="#010101" d="M185.109,13.939c0-2.981-1.162-5.789-3.271-7.896c-2.107-2.108-4.914-3.27-7.897-3.27
			s-5.788,1.162-7.896,3.27c-2.107,2.106-3.27,4.914-3.27,7.896v5.287c0,2.987,2.433,5.42,5.42,5.42
			c0.359,0,0.646-0.287,0.646-0.645v-9.546c0-0.358-0.287-0.646-0.646-0.646c-1.653,0-3.135,0.741-4.129,1.912v-1.783
			c0-5.443,4.43-9.875,9.875-9.875c5.448,0,9.875,4.432,9.875,9.875c0,0.043,0.006,0.086,0.015,0.131
			c-0.008,0.041-0.015,0.084-0.015,0.127v1.783c-0.994-1.17-2.479-1.91-4.129-1.91c-0.358,0-0.646,0.285-0.646,0.645v9.546
			c0,0.358,0.285,0.646,0.646,0.646c2.984,0,5.42-2.433,5.42-5.42v-5.287c0-0.043-0.004-0.086-0.018-0.129
			C185.105,14.025,185.109,13.982,185.109,13.939z M167.548,15.15v8.153c-1.97-0.312-3.486-2.021-3.486-4.077
			C164.068,17.17,165.579,15.459,167.548,15.15z M180.34,23.563v-8.154c1.969,0.311,3.484,2.021,3.484,4.076
			C183.818,21.544,182.307,23.251,180.34,23.563z"/>
	</g>
	<g>
		<g>
			<path fill="#010101" d="M213.85,3.261c-1.615,0-2.969,1.314-2.969,2.93c0,1.616,1.354,2.931,2.969,2.931
				c1.617-0.001,2.928-1.313,2.93-2.931C216.777,4.573,215.467,3.263,213.85,3.261z M213.85,7.948c-0.973,0-1.758-0.787-1.758-1.758
				s0.789-1.759,1.758-1.759c0.971,0,1.758,0.788,1.758,1.759C215.605,7.161,214.82,7.946,213.85,7.948L213.85,7.948z"/>
			<path fill="#010101" d="M223.162,12.152c-0.219-0.237-0.59-0.254-0.828-0.035c-0.238,0.22-0.254,0.591-0.033,0.828
				c0.01,0.013,0.021,0.023,0.033,0.035c0.457,0.459,0.455,1.201-0.004,1.658c-0.219,0.219-0.516,0.34-0.824,0.342h-0.029
				c-0.297-3.281-3.1-5.858-6.455-5.858h-2.93c-0.359,0-0.768,0.036-1.176,0.116c-0.768-0.821-1.842-1.287-2.965-1.289
				c-0.322,0-0.586,0.263-0.586,0.586v2.639c-0.701,0.747-1.215,1.65-1.494,2.637h-0.264c-0.971,0-1.758,0.786-1.758,1.758v1.25
				c0,0.969,0.789,1.758,1.758,1.758c0.002,0.002,0.395,0,0.703,0.002c0.396,0.781,0.959,1.479,1.639,2.039
				c0.002,0.781,0.002,2.061,0.002,2.061c0,0.324,0.262,0.586,0.586,0.586h2.344c0.324,0,0.625-0.262,0.625-0.586v-0.611
				c0.195,0.019,0.391,0.025,0.586,0.025h2.93v0.586c0,0.324,0.268,0.586,0.586,0.586h2.389c0.318,0,0.586-0.262,0.586-0.586
				l0.002-1.63c1.646-1.077,2.711-2.94,2.896-4.894h0.035c1.295-0.002,2.344-1.049,2.346-2.344
				C223.85,13.183,223.605,12.594,223.162,12.152z M208.531,14.991c-0.326-0.002-0.59-0.267-0.592-0.592
				c0-0.324,0.268-0.593,0.592-0.593s0.592,0.269,0.592,0.593C209.121,14.727,208.857,14.989,208.531,14.991z M216.193,12.636
				h-4.688c-0.323,0-0.625-0.262-0.625-0.586c0-0.324,0.302-0.586,0.625-0.586h4.688c0.324-0.001,0.586,0.261,0.588,0.584
				c0,0.324-0.262,0.587-0.586,0.588H216.193z"/>
		</g>
	</g>
	<g>
		<path fill="#010101" d="M243.209,8.443c3.551,1.713,6.932,3.596,10.396,5.396c-3.396,1.871-6.898,3.631-10.396,5.396
			C243.209,15.637,243.209,12.041,243.209,8.443z"/>
		<path fill="none" stroke="#070707" stroke-width="1.5" stroke-miterlimit="10" d="M261.314,22.816c0,0.311-0.25,0.562-0.563,0.562
			h-24.695c-0.313,0-0.563-0.251-0.563-0.562V4.86c0-0.309,0.252-0.56,0.563-0.56h24.695c0.313,0,0.563,0.25,0.563,0.56V22.816z"/>
	</g>
	<path fill="#010101" d="M298.363,24.725l-1.57-16.857c-0.063-0.69-0.68-1.25-1.375-1.25h-2.176
		c-0.238-3.333-3.133-5.839-6.465-5.602c-3,0.215-5.387,2.601-5.604,5.602h-2.604c-0.711,0.004-1.305,0.543-1.375,1.25l0,0
		l-1.569,16.857c-0.067,0.662,0.412,1.254,1.074,1.324c0.047,0.004,0.094,0.008,0.141,0.006h20.312
		c0.664,0.01,1.211-0.521,1.224-1.186C298.369,24.819,298.367,24.771,298.363,24.725z M292.826,11.366
		c0.238,0,0.434-0.193,0.434-0.432v-0.748c0.414,0.24,0.555,0.768,0.314,1.182c-0.236,0.412-0.768,0.555-1.182,0.316
		c-0.412-0.238-0.559-0.77-0.314-1.182c0.076-0.133,0.186-0.24,0.314-0.316v0.748C292.393,11.173,292.586,11.366,292.826,11.366
		L292.826,11.366z M287.209,1.863c2.693,0.003,4.938,2.067,5.164,4.751h-10.33C282.27,3.93,284.516,1.866,287.209,1.863z
		 M281.592,11.366c0.238,0,0.432-0.193,0.432-0.432v-0.748c0.414,0.24,0.559,0.768,0.316,1.182
		c-0.238,0.412-0.768,0.555-1.182,0.316c-0.412-0.24-0.555-0.77-0.314-1.182c0.074-0.133,0.188-0.24,0.314-0.316v0.748
		C281.16,11.173,281.352,11.366,281.592,11.366L281.592,11.366z M297.416,25.079c-0.07,0.072-0.168,0.113-0.27,0.111h-20.313
		c-0.188,0.008-0.354-0.139-0.354-0.328c0-0.02,0-0.039,0.004-0.059l1.564-16.859l0,0c0.029-0.261,0.256-0.459,0.52-0.466h2.592
		v1.786c-0.924,0.236-1.479,1.18-1.242,2.104c0.238,0.924,1.182,1.48,2.105,1.242c0.922-0.238,1.479-1.182,1.24-2.105
		c-0.156-0.609-0.637-1.084-1.24-1.24V7.479h10.369v1.786c-0.928,0.238-1.479,1.18-1.24,2.104c0.238,0.926,1.182,1.48,2.104,1.242
		c0.926-0.238,1.479-1.182,1.238-2.105c-0.154-0.609-0.635-1.084-1.238-1.24V7.479h2.158c0.266,0.011,0.479,0.207,0.518,0.466
		l1.564,16.859C297.514,24.903,297.482,25.003,297.416,25.079z"/>
</g>
<g>
	
		<rect x="50.091" y="94.361" fill="none" stroke="#414042" stroke-width="0.5" stroke-miterlimit="10" width="20.619" height="14.842"/>
	<circle fill="none" stroke="#414042" stroke-width="0.5" stroke-miterlimit="10" cx="60.401" cy="102.225" r="5.154"/>
	<line fill="none" stroke="#414042" stroke-width="0.5" stroke-miterlimit="10" x1="51.791" y1="92.436" x2="55.247" y2="92.436"/>
	<polyline fill="none" stroke="#414042" stroke-width="0.5" stroke-miterlimit="10" points="58.21,94.361 58.21,90.85 66.896,90.85 
		66.896,94.361 	"/>
</g>
<g>
	<polygon fill="none" stroke="#414042" stroke-width="0.5" stroke-miterlimit="10" points="4.954,102.859 14.62,111.359 
		33.787,103.859 33.787,100.025 23.787,93.359 24.62,90.525 31.954,87.693 29.12,84.025 10.287,90.525 4.954,97.693 	"/>
	<polyline fill="none" stroke="#414042" stroke-width="0.5" stroke-miterlimit="10" points="9.668,91.357 13.62,93.859 
		31.954,87.693 	"/>
	<polygon fill="none" stroke="#414042" stroke-width="0.5" stroke-miterlimit="10" points="4.954,98.859 23.787,93.359 
		22.954,97.025 8.454,101.859 	"/>
	<polygon fill="none" stroke="#414042" stroke-width="0.5" stroke-miterlimit="10" points="14.371,107.193 29.454,101.859 
		22.954,97.025 8.454,101.859 	"/>
	<line fill="none" stroke="#414042" stroke-width="0.5" stroke-miterlimit="10" x1="14.62" y1="111.359" x2="14.371" y2="107.193"/>
	
		<line fill="none" stroke="#414042" stroke-width="0.5" stroke-miterlimit="10" x1="29.454" y1="101.859" x2="33.787" y2="100.025"/>
</g>
<path d="M346.842,21.746h-2.599c0.087-0.085,0.087-0.26,0.087-0.434V8.406c0-0.692-0.606-1.299-1.299-1.299h-24.34
	c-0.693,0-1.303,0.607-1.303,1.299v12.906c0,0.174,0,0.261,0.089,0.434h-2.601c-0.434,0-0.866,0.347-0.866,0.866v1.733
	c0,0.432,0.351,0.866,0.866,0.866h31.962c0.437,0,0.867-0.348,0.867-0.866v-1.733C347.621,22.093,347.275,21.746,346.842,21.746z
	 M318.259,21.313V8.406c0-0.258,0.172-0.433,0.436-0.433h24.34c0.259,0,0.432,0.175,0.432,0.433v12.906
	c0,0.261-0.173,0.434-0.432,0.434h-24.34C318.431,21.746,318.259,21.573,318.259,21.313z M346.755,24.259l-31.875,0.086v-1.733
	h3.813c0,0,0,0,0.087,0h24.34c0.087,0,0.172,0,0.258,0h3.466v1.646L346.755,24.259L346.755,24.259z"/>
<path fill="#FFFFFF" d="M346.802,61.751h-2.596c0.087-0.085,0.087-0.26,0.087-0.433v-12.89c0-0.691-0.605-1.297-1.297-1.297h-24.313
	c-0.689,0-1.298,0.606-1.298,1.297v12.891c0,0.173,0,0.26,0.088,0.433h-2.597c-0.433,0-0.865,0.347-0.865,0.865v1.731
	c0,0.431,0.35,0.865,0.865,0.865H346.8c0.436,0,0.866-0.347,0.866-0.865v-1.731C347.58,62.098,347.234,61.751,346.802,61.751z
	 M318.253,61.318v-12.89c0-0.258,0.173-0.432,0.433-0.432h24.313c0.259,0,0.431,0.174,0.431,0.432v12.891
	c0,0.26-0.172,0.433-0.431,0.433h-24.313C318.426,61.751,318.253,61.579,318.253,61.318z M346.715,64.261l-31.836,0.086v-1.731
	h3.807c0,0,0,0,0.09,0h24.311c0.086,0,0.172,0,0.258,0h3.461v1.645H346.715z"/>
<g>
	<g>
		<path id="SVGID_4_" d="M146.616,111.227c-0.4,0-0.8-0.398-0.8-0.801c0-0.4,0.4-0.801,0.8-0.801c0.4,0,0.8,0.4,0.8,0.801
			C147.416,110.825,147.016,111.227,146.616,111.227z M140.716,109.025v-18.4h11.7v16.7l-2.6-4.601c0.8-1.199,0.899-2.802,0.1-4.103
			c-0.8-1.3-2.2-2-3.7-1.897l1.4,2.5c0.5,0.801,0.2,1.897-0.7,2.397c-0.7,0.5-1.8,0.2-2.3-0.603l-1.4-2.5
			c-0.8,1.201-0.9,2.803-0.1,4.103c0.8,1.301,2.2,2,3.7,1.897l2.6,4.4L140.716,109.025L140.716,109.025z M144.916,89.125h3.4
			c0.1,0,0.2,0.102,0.2,0.2c0,0.101-0.101,0.2-0.2,0.2h-3.4c-0.1,0-0.2-0.103-0.2-0.2C144.716,89.325,144.816,89.125,144.916,89.125
			z M152.017,88.025h-10.8c-0.9,0-1.6,0.699-1.6,1.6v20.801c0,0.899,0.7,1.6,1.6,1.6h10.7c0.9,0,1.601-0.697,1.601-1.6V89.625
			C153.616,88.727,152.916,88.025,152.017,88.025z"/>
	</g>
</g>
<g>
	<g>
		<path id="SVGID_1_" fill="#FFFFFF" d="M109.115,111.227c-0.4,0-0.8-0.398-0.8-0.801c0-0.4,0.4-0.801,0.8-0.801
			c0.4,0,0.8,0.4,0.8,0.801C109.915,110.825,109.515,111.227,109.115,111.227z M103.214,109.025v-18.4h11.7v16.7l-2.6-4.601
			c0.8-1.199,0.899-2.802,0.1-4.103c-0.8-1.3-2.2-2-3.7-1.897l1.4,2.5c0.5,0.801,0.2,1.897-0.7,2.397c-0.7,0.5-1.8,0.2-2.3-0.603
			l-1.4-2.5c-0.8,1.201-0.9,2.803-0.1,4.103c0.8,1.301,2.2,2,3.7,1.897l2.6,4.4L103.214,109.025L103.214,109.025z M107.415,89.125
			h3.4c0.1,0,0.2,0.102,0.2,0.2c0,0.101-0.101,0.2-0.2,0.2h-3.4c-0.1,0-0.2-0.103-0.2-0.2
			C107.214,89.325,107.314,89.125,107.415,89.125z M114.516,88.025h-10.8c-0.9,0-1.6,0.699-1.6,1.6v20.801c0,0.899,0.7,1.6,1.6,1.6
			h10.7c0.9,0,1.601-0.697,1.601-1.6V89.625C116.115,88.727,115.415,88.025,114.516,88.025z"/>
	</g>
</g>
<g>
	<g>
		<path fill="#231F20" d="M186.503,101.943v-7.07h-2.642v-0.946h6.354v0.946h-2.651v7.07H186.503z"/>
		<path fill="#231F20" d="M191.484,101.943v-8.019h1.062v8.019H191.484z"/>
		<path fill="#231F20" d="M194.404,101.943v-8.019h1.09l4.21,6.294v-6.294h1.019v8.019h-1.089l-4.211-6.301v6.301H194.404z"/>
	</g>
	<rect x="179.59" y="87.5" fill="none" stroke="#231F20" stroke-width="0.5" stroke-miterlimit="10" width="26.739" height="21"/>
	<polyline fill="none" stroke="#231F20" stroke-width="0.5" stroke-miterlimit="10" points="206.329,87.5 208.207,88.381 
		208.207,110.5 180.219,110.5 179.59,108.5 	"/>
</g>
<g>
	<g>
		<path fill="#FFFFFF" d="M223.691,101.943v-7.07h-2.642v-0.946h6.354v0.946h-2.651v7.07H223.691z"/>
		<path fill="#FFFFFF" d="M228.675,101.943v-8.019h1.062v8.019H228.675z"/>
		<path fill="#FFFFFF" d="M231.596,101.943v-8.019h1.088l4.211,6.294v-6.294h1.019v8.019h-1.088l-4.212-6.301v6.301H231.596z"/>
	</g>
	<rect x="216.779" y="87.5" fill="none" stroke="#FFFFFF" stroke-width="0.5" stroke-miterlimit="10" width="26.738" height="21"/>
	<polyline fill="none" stroke="#FFFFFF" stroke-width="0.5" stroke-miterlimit="10" points="243.52,87.5 245.396,88.381 
		245.396,110.5 217.408,110.5 216.779,108.5 	"/>
</g>
<g>
	<path d="M365.84,25.876c-0.496-0.068-0.994-0.119-1.487-0.208c-0.407-0.075-0.815-0.172-1.212-0.294
		c-0.488-0.151-0.721-0.513-0.73-1.022c-0.014-0.705-0.009-1.413-0.051-2.118c-0.019-0.264-0.106-0.539-0.229-0.773
		c-0.09-0.173-0.27-0.332-0.446-0.422c-0.997-0.514-1.565-1.308-1.569-2.436c-0.016-3.33-0.013-6.661-0.002-9.991
		c0.003-1.054,0.488-1.869,1.421-2.337c0.564-0.283,0.783-0.715,0.825-1.269c0.049-0.636,0.042-1.276,0.048-1.915
		c0.01-0.842,0.229-1.166,1.051-1.349c0.704-0.156,1.425-0.241,2.137-0.357c0.083-0.014,0.165-0.031,0.248-0.046
		c0.51,0,1.021,0,1.533,0c0.604,0.084,1.213,0.159,1.814,0.259c0.325,0.054,0.65,0.134,0.965,0.236
		c0.391,0.128,0.63,0.415,0.651,0.83c0.029,0.561,0.011,1.124,0.043,1.683c0.021,0.388,0.068,0.779,0.157,1.155
		c0.077,0.331,0.296,0.559,0.622,0.724c0.974,0.491,1.47,1.307,1.513,2.396c0.011,0.246,0.001,0.492,0.001,0.773
		c0.398-0.086,0.386,0.154,0.379,0.418c-0.013,0.502-0.015,1.005,0.001,1.507c0.008,0.256-0.036,0.424-0.359,0.374
		c0,0.768,0,1.518,0,2.287c0.337-0.031,0.365,0.169,0.359,0.434c-0.014,0.74-0.013,1.482,0,2.223
		c0.003,0.263-0.015,0.476-0.38,0.423c0,0.46-0.003,0.895,0,1.328c0.012,1.249-0.534,2.139-1.666,2.694
		c-0.194,0.096-0.357,0.345-0.443,0.559c-0.108,0.279-0.161,0.592-0.176,0.894c-0.03,0.535-0.012,1.072-0.016,1.609
		c-0.005,0.854-0.26,1.196-1.102,1.363c-0.699,0.138-1.41,0.217-2.117,0.323c-0.083,0.013-0.166,0.031-0.248,0.046
		C366.861,25.876,366.35,25.876,365.84,25.876z M363.608,5.327c2.011,0,4.007,0,5.992,0c-0.049-0.229-0.127-0.453-0.139-0.679
		c-0.028-0.48-0.024-0.963-0.031-1.445c-0.008-0.425-0.101-0.552-0.521-0.651c-1.484-0.349-2.974-0.378-4.463-0.019
		c-0.579,0.14-0.642,0.238-0.654,0.838C363.778,4.023,363.88,4.687,363.608,5.327z M363.427,21.78
		c0.049,0.201,0.123,0.379,0.132,0.562c0.029,0.54,0.037,1.081,0.047,1.623c0.008,0.522,0.104,0.653,0.612,0.781
		c1.615,0.408,3.229,0.379,4.845,0.003c0.459-0.107,0.557-0.241,0.564-0.708c0.009-0.521,0.005-1.044,0.036-1.563
		c0.014-0.232,0.097-0.46,0.147-0.697C367.683,21.78,365.557,21.78,363.427,21.78z M371.904,13.617c0-1.402,0.002-2.805,0-4.208
		c-0.003-1.239-0.835-2.077-2.07-2.078c-2.144-0.004-4.29-0.004-6.434,0c-1.229,0-2.072,0.85-2.073,2.081
		c-0.003,2.799-0.003,5.597,0.002,8.396c0,0.188,0.018,0.383,0.063,0.566c0.228,0.928,0.99,1.512,2.013,1.516
		c2.144,0.009,4.288,0.003,6.434,0c0.167,0,0.339-0.013,0.503-0.05c0.932-0.206,1.557-0.977,1.562-1.949
		C371.91,16.467,371.904,15.043,371.904,13.617z"/>
	<line fill="none" stroke="#070707" stroke-miterlimit="10" x1="367.703" y1="13.307" x2="364.404" y2="16.159"/>
	<line fill="none" stroke="#070707" stroke-miterlimit="10" x1="367.353" y1="13.574" x2="363.582" y2="8.699"/>
</g>
<g>
	<path fill="#FFFFFF" d="M365.84,65.493c-0.496-0.068-0.994-0.119-1.487-0.208c-0.407-0.075-0.815-0.172-1.212-0.294
		c-0.488-0.151-0.721-0.513-0.73-1.022c-0.014-0.705-0.009-1.413-0.051-2.118c-0.019-0.264-0.106-0.539-0.229-0.773
		c-0.09-0.173-0.27-0.332-0.446-0.422c-0.997-0.514-1.565-1.308-1.569-2.436c-0.016-3.33-0.013-6.661-0.002-9.991
		c0.003-1.054,0.488-1.869,1.421-2.337c0.564-0.283,0.783-0.715,0.825-1.269c0.049-0.636,0.042-1.276,0.048-1.915
		c0.01-0.842,0.229-1.166,1.051-1.349c0.704-0.156,1.425-0.241,2.137-0.357c0.083-0.014,0.165-0.031,0.248-0.046
		c0.51,0,1.021,0,1.533,0c0.604,0.084,1.213,0.159,1.814,0.259c0.325,0.054,0.65,0.134,0.965,0.236
		c0.391,0.128,0.63,0.415,0.651,0.83c0.029,0.561,0.011,1.124,0.043,1.683c0.021,0.388,0.068,0.779,0.157,1.155
		c0.077,0.331,0.296,0.559,0.622,0.724c0.974,0.491,1.47,1.307,1.513,2.396c0.011,0.246,0.001,0.492,0.001,0.773
		c0.398-0.086,0.386,0.154,0.379,0.418c-0.013,0.502-0.015,1.005,0.001,1.507c0.008,0.256-0.036,0.424-0.359,0.374
		c0,0.768,0,1.518,0,2.287c0.337-0.031,0.365,0.169,0.359,0.434c-0.014,0.74-0.013,1.482,0,2.223
		c0.003,0.263-0.015,0.476-0.38,0.423c0,0.46-0.003,0.895,0,1.328c0.012,1.249-0.534,2.139-1.666,2.694
		c-0.194,0.096-0.357,0.345-0.443,0.559c-0.108,0.279-0.161,0.592-0.176,0.894c-0.03,0.535-0.012,1.072-0.016,1.609
		c-0.005,0.854-0.26,1.196-1.102,1.363c-0.699,0.138-1.41,0.217-2.117,0.323c-0.083,0.013-0.166,0.031-0.248,0.046
		C366.861,65.493,366.35,65.493,365.84,65.493z M363.608,44.944c2.011,0,4.007,0,5.992,0c-0.049-0.229-0.127-0.453-0.139-0.679
		c-0.028-0.48-0.024-0.963-0.031-1.445c-0.008-0.425-0.101-0.552-0.521-0.651c-1.484-0.349-2.974-0.378-4.463-0.019
		c-0.579,0.14-0.642,0.238-0.654,0.838C363.778,43.641,363.88,44.304,363.608,44.944z M363.427,61.397
		c0.049,0.201,0.123,0.379,0.132,0.562c0.029,0.54,0.037,1.081,0.047,1.623c0.008,0.522,0.104,0.653,0.612,0.781
		c1.615,0.408,3.229,0.379,4.845,0.003c0.459-0.107,0.557-0.241,0.564-0.708c0.009-0.521,0.005-1.044,0.036-1.563
		c0.014-0.232,0.097-0.46,0.147-0.697C367.683,61.397,365.557,61.397,363.427,61.397z M371.904,53.234c0-1.402,0.002-2.805,0-4.208
		c-0.003-1.239-0.835-2.077-2.07-2.078c-2.144-0.004-4.29-0.004-6.434,0c-1.229,0-2.072,0.85-2.073,2.081
		c-0.003,2.799-0.003,5.597,0.002,8.396c0,0.188,0.018,0.383,0.063,0.566c0.228,0.928,0.99,1.512,2.013,1.516
		c2.144,0.009,4.288,0.003,6.434,0c0.167,0,0.339-0.013,0.503-0.05c0.932-0.206,1.557-0.977,1.562-1.949
		C371.91,56.084,371.904,54.66,371.904,53.234z"/>
	<line fill="none" stroke="#FFFFFF" stroke-miterlimit="10" x1="367.703" y1="52.924" x2="364.404" y2="55.776"/>
	<line fill="none" stroke="#FFFFFF" stroke-miterlimit="10" x1="367.353" y1="53.191" x2="363.582" y2="48.316"/>
</g>
</svg>
